<svg width="53" height="17" viewBox="0 0 53 17" fill="none" xmlns="http://www.w3.org/2000/svg">
<path d="M4.93859 14.298L5.94659 14.316V16.926H4.93859V14.298ZM5.02859 14.1V3.138L5.83859 3.012V14.136L5.02859 14.1ZM4.93859 0.329999H5.94659V2.904L4.93859 3.03V0.329999ZM8.95259 4.902C8.80859 4.734 8.61659 4.572 8.37659 4.416C8.13659 4.26 7.86659 4.122 7.56659 4.002C7.26659 3.87 6.93659 3.768 6.57659 3.696C6.22859 3.612 5.86259 3.57 5.47859 3.57C4.49459 3.57 3.76859 3.756 3.30059 4.128C2.83259 4.5 2.59859 5.01 2.59859 5.658C2.59859 6.114 2.71859 6.474 2.95859 6.738C3.19859 7.002 3.56459 7.218 4.05659 7.386C4.56059 7.554 5.19659 7.728 5.96459 7.908C6.85259 8.1 7.62059 8.334 8.26859 8.61C8.91659 8.886 9.41459 9.258 9.76259 9.726C10.1106 10.182 10.2846 10.794 10.2846 11.562C10.2846 12.174 10.1646 12.708 9.92459 13.164C9.69659 13.608 9.37259 13.98 8.95259 14.28C8.53259 14.568 8.04059 14.784 7.47659 14.928C6.91259 15.06 6.30059 15.126 5.64059 15.126C4.99259 15.126 4.35659 15.06 3.73259 14.928C3.12059 14.784 2.53859 14.58 1.98659 14.316C1.43459 14.052 0.918594 13.722 0.438594 13.326L1.21259 11.958C1.40459 12.162 1.65059 12.366 1.95059 12.57C2.26259 12.762 2.61059 12.942 2.99459 13.11C3.39059 13.278 3.81659 13.416 4.27259 13.524C4.72859 13.62 5.19659 13.668 5.67659 13.668C6.58859 13.668 7.29659 13.506 7.80059 13.182C8.30459 12.846 8.55659 12.36 8.55659 11.724C8.55659 11.244 8.41259 10.86 8.12459 10.572C7.84859 10.284 7.43459 10.044 6.88259 9.852C6.33059 9.66 5.65859 9.468 4.86659 9.276C4.00259 9.06 3.27659 8.826 2.68859 8.574C2.10059 8.31 1.65659 7.968 1.35659 7.548C1.06859 7.128 0.924594 6.582 0.924594 5.91C0.924594 5.094 1.12259 4.404 1.51859 3.84C1.91459 3.276 2.46059 2.85 3.15659 2.562C3.85259 2.274 4.63859 2.13 5.51459 2.13C6.09059 2.13 6.62459 2.19 7.11659 2.31C7.62059 2.43 8.08859 2.598 8.52059 2.814C8.95259 3.03 9.34859 3.288 9.70859 3.588L8.95259 4.902ZM22.3626 15.09C21.3426 15.09 20.4846 14.916 19.7886 14.568C19.0926 14.208 18.5346 13.728 18.1146 13.128C17.6946 12.516 17.3886 11.826 17.1966 11.058C17.0046 10.29 16.9086 9.498 16.9086 8.682V2.22H18.5286V8.682C18.5286 9.306 18.5886 9.918 18.7086 10.518C18.8406 11.106 19.0506 11.634 19.3386 12.102C19.6266 12.57 20.0166 12.942 20.5086 13.218C21.0006 13.494 21.6126 13.632 22.3446 13.632C23.0886 13.632 23.7066 13.494 24.1986 13.218C24.6906 12.93 25.0806 12.552 25.3686 12.084C25.6566 11.604 25.8606 11.07 25.9806 10.482C26.1126 9.894 26.1786 9.294 26.1786 8.682V2.22H27.7986V8.682C27.7986 9.546 27.6966 10.368 27.4926 11.148C27.3006 11.916 26.9886 12.594 26.5566 13.182C26.1246 13.77 25.5606 14.238 24.8646 14.586C24.1806 14.922 23.3466 15.09 22.3626 15.09ZM38.1825 4.902C38.0385 4.734 37.8465 4.572 37.6065 4.416C37.3665 4.26 37.0965 4.122 36.7965 4.002C36.4965 3.87 36.1665 3.768 35.8065 3.696C35.4585 3.612 35.0925 3.57 34.7085 3.57C33.7245 3.57 32.9985 3.756 32.5305 4.128C32.0625 4.5 31.8285 5.01 31.8285 5.658C31.8285 6.114 31.9485 6.474 32.1885 6.738C32.4285 7.002 32.7945 7.218 33.2865 7.386C33.7905 7.554 34.4265 7.728 35.1945 7.908C36.0825 8.1 36.8505 8.334 37.4985 8.61C38.1465 8.886 38.6445 9.258 38.9925 9.726C39.3405 10.182 39.5145 10.794 39.5145 11.562C39.5145 12.174 39.3945 12.708 39.1545 13.164C38.9265 13.608 38.6025 13.98 38.1825 14.28C37.7625 14.568 37.2705 14.784 36.7065 14.928C36.1425 15.06 35.5305 15.126 34.8705 15.126C34.2225 15.126 33.5865 15.06 32.9625 14.928C32.3505 14.784 31.7685 14.58 31.2165 14.316C30.6645 14.052 30.1485 13.722 29.6685 13.326L30.4425 11.958C30.6345 12.162 30.8805 12.366 31.1805 12.57C31.4925 12.762 31.8405 12.942 32.2245 13.11C32.6205 13.278 33.0465 13.416 33.5025 13.524C33.9585 13.62 34.4265 13.668 34.9065 13.668C35.8185 13.668 36.5265 13.506 37.0305 13.182C37.5345 12.846 37.7865 12.36 37.7865 11.724C37.7865 11.244 37.6425 10.86 37.3545 10.572C37.0785 10.284 36.6645 10.044 36.1125 9.852C35.5605 9.66 34.8885 9.468 34.0965 9.276C33.2325 9.06 32.5065 8.826 31.9185 8.574C31.3305 8.31 30.8865 7.968 30.5865 7.548C30.2985 7.128 30.1545 6.582 30.1545 5.91C30.1545 5.094 30.3525 4.404 30.7485 3.84C31.1445 3.276 31.6905 2.85 32.3865 2.562C33.0825 2.274 33.8685 2.13 34.7445 2.13C35.3205 2.13 35.8545 2.19 36.3465 2.31C36.8505 2.43 37.3185 2.598 37.7505 2.814C38.1825 3.03 38.5785 3.288 38.9385 3.588L38.1825 4.902ZM41.6452 15V2.22H46.0732C47.4412 2.22 48.5812 2.508 49.4932 3.084C50.4172 3.648 51.1072 4.416 51.5632 5.388C52.0192 6.348 52.2472 7.416 52.2472 8.592C52.2472 9.888 51.9952 11.016 51.4912 11.976C50.9872 12.936 50.2732 13.68 49.3492 14.208C48.4252 14.736 47.3332 15 46.0732 15H41.6452ZM50.6092 8.592C50.6092 7.632 50.4292 6.78 50.0692 6.036C49.7212 5.292 49.2112 4.71 48.5392 4.29C47.8672 3.87 47.0452 3.66 46.0732 3.66H43.2652V13.56H46.0732C47.0572 13.56 47.8852 13.344 48.5572 12.912C49.2292 12.468 49.7392 11.874 50.0872 11.13C50.4352 10.374 50.6092 9.528 50.6092 8.592Z" fill="#1D1F22"/>
</svg>
