<svg width="55" height="14" viewBox="0 0 55 14" fill="none" xmlns="http://www.w3.org/2000/svg">
<path d="M0.416266 8.338L0.812266 7.402H8.94827L8.55227 8.338H0.416266ZM9.57827 5.404L9.18227 6.34H0.848266L1.24427 5.404H9.57827ZM2.16227 6.52C2.16227 5.74 2.29427 4.978 2.55827 4.234C2.83427 3.478 3.23027 2.794 3.74627 2.182C4.27427 1.558 4.91627 1.066 5.67227 0.705999C6.42827 0.333999 7.28627 0.147999 8.24627 0.147999C9.38627 0.147999 10.3643 0.411999 11.1803 0.94C11.9963 1.456 12.6023 2.122 12.9983 2.938L11.7203 3.766C11.4683 3.226 11.1443 2.8 10.7483 2.488C10.3643 2.164 9.94427 1.936 9.48827 1.804C9.04427 1.672 8.60627 1.606 8.17427 1.606C7.46627 1.606 6.83627 1.75 6.28427 2.038C5.74427 2.326 5.28827 2.71 4.91627 3.19C4.54427 3.67 4.26227 4.21 4.07027 4.81C3.89027 5.398 3.80027 5.992 3.80027 6.592C3.80027 7.252 3.90827 7.888 4.12427 8.5C4.35227 9.112 4.66427 9.652 5.06027 10.12C5.45627 10.588 5.92427 10.96 6.46427 11.236C7.00427 11.512 7.59227 11.65 8.22827 11.65C8.67227 11.65 9.12827 11.572 9.59627 11.416C10.0643 11.26 10.5023 11.02 10.9103 10.696C11.3183 10.36 11.6423 9.928 11.8823 9.4L13.2323 10.138C12.9683 10.774 12.5603 11.314 12.0083 11.758C11.4563 12.202 10.8383 12.538 10.1543 12.766C9.48227 12.994 8.81627 13.108 8.15627 13.108C7.28027 13.108 6.47627 12.922 5.74427 12.55C5.01227 12.166 4.37627 11.662 3.83627 11.038C3.30827 10.402 2.89427 9.694 2.59427 8.914C2.30627 8.122 2.16227 7.324 2.16227 6.52ZM28.8896 11.56V13H20.2136V0.219999H28.7276V1.66H21.8336V5.8H27.8276V7.15H21.8336V11.56H28.8896ZM36.386 13.09C35.366 13.09 34.508 12.916 33.812 12.568C33.116 12.208 32.558 11.728 32.138 11.128C31.718 10.516 31.412 9.826 31.22 9.058C31.028 8.29 30.932 7.498 30.932 6.682V0.219999H32.552V6.682C32.552 7.306 32.612 7.918 32.732 8.518C32.864 9.106 33.074 9.634 33.362 10.102C33.65 10.57 34.04 10.942 34.532 11.218C35.024 11.494 35.636 11.632 36.368 11.632C37.112 11.632 37.73 11.494 38.222 11.218C38.714 10.93 39.104 10.552 39.392 10.084C39.68 9.604 39.884 9.07 40.004 8.482C40.136 7.894 40.202 7.294 40.202 6.682V0.219999H41.822V6.682C41.822 7.546 41.72 8.368 41.516 9.148C41.324 9.916 41.012 10.594 40.58 11.182C40.148 11.77 39.584 12.238 38.888 12.586C38.204 12.922 37.37 13.09 36.386 13.09ZM44.6999 13V0.219999H50.1719C50.7359 0.219999 51.2519 0.339999 51.7199 0.579999C52.1879 0.808 52.5959 1.12 52.9439 1.516C53.2919 1.9 53.5619 2.338 53.7539 2.83C53.9459 3.31 54.0419 3.802 54.0419 4.306C54.0419 4.894 53.9279 5.452 53.6999 5.98C53.4839 6.508 53.1719 6.958 52.7639 7.33C52.3679 7.702 51.8999 7.96 51.3599 8.104L54.4559 13H52.6199L49.7039 8.41H46.3199V13H44.6999ZM46.3199 6.97H50.1899C50.6339 6.97 51.0179 6.85 51.3419 6.61C51.6779 6.358 51.9359 6.028 52.1159 5.62C52.3079 5.212 52.4039 4.774 52.4039 4.306C52.4039 3.826 52.2959 3.388 52.0799 2.992C51.8639 2.584 51.5819 2.26 51.2339 2.02C50.8859 1.78 50.5019 1.66 50.0819 1.66H46.3199V6.97Z" fill="#1D1F22"/>
</svg>
