<svg width="48" height="14" viewBox="0 0 48 14" fill="none" xmlns="http://www.w3.org/2000/svg">
<path d="M8.32434 6.214H9.78234V7.294H7.73034L7.11834 8.338V8.842H9.80034V9.922H7.11834V13H5.49834V9.922H2.85234V8.842H5.49834V8.302L4.92234 7.294H2.85234V6.214H4.34634L0.674344 0.219999H2.43834L6.30834 6.88L10.2143 0.219999H11.9963L8.32434 6.214ZM17.2003 11.092C17.4283 11.248 17.7403 11.398 18.1363 11.542C18.5443 11.674 19.0243 11.74 19.5763 11.74C20.1403 11.74 20.6023 11.65 20.9623 11.47C21.3223 11.278 21.5983 10.996 21.7903 10.624C21.9823 10.24 22.1143 9.754 22.1863 9.166C22.2583 8.578 22.2943 7.882 22.2943 7.078V0.219999H23.9143V6.718C23.9143 7.666 23.8663 8.536 23.7703 9.328C23.6743 10.12 23.4823 10.81 23.1943 11.398C22.9063 11.974 22.4743 12.418 21.8983 12.73C21.3343 13.042 20.5783 13.198 19.6303 13.198C19.0303 13.198 18.5023 13.132 18.0463 13C17.5903 12.868 17.1703 12.67 16.7863 12.406L17.2003 11.092ZM26.8366 13V0.219999H32.1646C32.7286 0.219999 33.2446 0.339999 33.7126 0.579999C34.1806 0.808 34.5886 1.12 34.9366 1.516C35.2846 1.9 35.5546 2.338 35.7466 2.83C35.9386 3.31 36.0346 3.802 36.0346 4.306C36.0346 5.002 35.8786 5.668 35.5666 6.304C35.2546 6.928 34.8166 7.438 34.2526 7.834C33.6886 8.218 33.0286 8.41 32.2726 8.41H28.4566V13H26.8366ZM28.4566 6.97H32.1826C32.6266 6.97 33.0106 6.85 33.3346 6.61C33.6706 6.37 33.9286 6.046 34.1086 5.638C34.3006 5.23 34.3966 4.786 34.3966 4.306C34.3966 3.802 34.2886 3.352 34.0726 2.956C33.8566 2.548 33.5746 2.23 33.2266 2.002C32.8786 1.774 32.4946 1.66 32.0746 1.66H28.4566V6.97ZM38.2211 0.219999L42.0911 6.88L45.9971 0.219999H47.7611L42.9011 8.338V13H41.2811V8.302L36.4391 0.219999H38.2211Z" fill="#1D1F22"/>
</svg>
